<?xml version="1.0" encoding="utf-8"?>
<!-- Generator: Adobe Illustrator 25.1.0, SVG Export Plug-In . SVG Version: 6.00 Build 0)  -->
<svg version="1.1" id="레이어_1" xmlns="http://www.w3.org/2000/svg" xmlns:xlink="http://www.w3.org/1999/xlink" x="0px"
	 y="0px" viewBox="0 0 841.89 486.57" style="enable-background:new 0 0 841.89 486.57;" xml:space="preserve">
<style type="text/css">
	.st0{fill:#273E34;}
	.st1{fill:#273D33;}
</style>
<g>
	<g>
		<path class="st0" d="M103.46,422.26c-2.88,0.05-6.11,0.08-9.67,0.08h-9.31c-1.35,0-2.78-0.02-4.29-0.08
			c-1.51-0.05-3.16-0.13-4.94-0.23l-1.48-0.08v6.99h1.4c1.95,0,3.82,0.08,5.55,0.22c1.59,0.15,2.94,0.54,4.07,1.2
			c0.98,0.49,1.75,1.37,2.35,2.67c0.65,1.38,0.98,3.41,0.98,6.03v22.78c-1.26,0.83-3.32,1.93-6.14,3.25
			c-3.15,1.48-7.78,2.23-13.76,2.23c-6.9,0-13.26-1.51-18.91-4.49c-5.7-3.01-10.72-7.06-14.88-12.04
			c-4.09-4.91-7.33-10.64-9.62-17.01c-2.3-6.39-3.47-13-3.47-19.64c0-6.22,1.11-12.32,3.31-18.13c2.19-5.81,5.36-11.08,9.44-15.65
			c3.96-4.47,8.81-8.14,14.4-10.88c5.56-2.73,11.82-4.11,18.63-4.11c8.48,0,15.34,1.9,20.38,5.64c5.02,3.73,8.58,10.07,10.6,18.84
			l0.25,1.09h6.17l-2.98-24.55l-0.83-0.29c-3.35-1.15-6.42-2.25-9.19-3.3c-2.88-1.07-5.77-2-8.57-2.72
			c-2.84-0.76-5.75-1.38-8.66-1.84c-2.98-0.48-6.29-0.72-9.84-0.72c-8.45,0-16.35,1.49-23.49,4.44
			c-7.13,2.95-13.37,7.12-18.54,12.38c-5.15,5.26-9.23,11.58-12.13,18.77c-2.9,7.17-4.37,15.05-4.37,23.4c0,5.8,1,12.16,2.98,18.93
			c1.98,6.81,5.39,13.26,10.12,19.19c4.73,5.8,11.01,10.73,18.67,14.64c7.68,3.93,17.32,5.91,28.64,5.91c3.4,0,6.68-0.24,9.77-0.73
			c3.03-0.47,6.09-1.15,9.09-2.01c2.81-0.82,5.74-1.82,8.71-2.95c2.88-1.11,5.94-2.24,9.19-3.38l0.94-0.33v-4.27l-2.37-2.37v-20.08
			c0-2.65,0.29-4.71,0.85-6.11c0.51-1.27,1.18-2.13,2.18-2.69c0.86-0.6,1.81-0.95,2.91-1.1c1.25-0.14,2.54-0.22,3.86-0.22h1.4v-6.96
			l-1.46,0.05C108.99,422.13,106.35,422.21,103.46,422.26z"/>
		<path class="st0" d="M213.48,446.14c-1.51,4.17-3.13,7.48-4.8,9.86c-1.62,2.3-3.47,4.11-5.51,5.36c-2.04,1.27-4.45,2.16-7.16,2.65
			c-2.81,0.52-6.11,0.82-9.77,0.93h-9.78c-3.85,0-6.82-0.31-8.85-0.9c-1.84-0.54-3.16-1.43-4.01-2.71
			c-0.93-1.47-1.49-3.54-1.68-6.14c-0.21-2.76-0.31-6.39-0.31-10.78v-25.42h15.48c2.94,0,5.51,0.08,7.63,0.24
			c1.93,0.13,3.5,0.6,4.67,1.4c1.1,0.77,1.95,2.04,2.54,3.78c0.63,1.91,0.95,4.71,0.95,8.31v1.4h5.96v-1.4
			c0-1.27-0.03-2.65-0.08-4.16c-0.05-1.48-0.13-3.02-0.24-4.62c-0.1-1.56-0.18-3.09-0.23-4.61c-0.05-1.5-0.08-2.87-0.08-4.13
			c0-2.82,0.05-6.02,0.16-9.57c0.1-3.51,0.26-6.17,0.46-7.93l0.19-1.57h-5.86l-0.25,1.1c-0.22,1-0.41,2.28-0.58,3.87
			c-0.14,1.33-0.58,2.65-1.32,3.95c-0.72,1.25-1.85,2.36-3.38,3.29c-1.49,0.9-3.72,1.36-6.61,1.36h-19.42v-41.99h17.05
			c7.56,0,13.21,1.29,16.78,3.84c3.51,2.5,5.89,7.29,7.09,14.25l0.25,1.49l5.69-1.43v-26.06l-1.44,0.04
			c-7.38,0.21-15.03,0.32-22.76,0.32h-36.29c-3.87,0-8.39-0.11-13.43-0.32l-1.46-0.05v6.87l1.31,0.1c3.16,0.22,5.59,0.45,7.41,0.7
			c1.69,0.23,3.04,0.7,3.9,1.31c0.82,0.75,1.43,1.91,1.78,3.45c0.39,1.72,0.6,4.13,0.6,7.18v70.05c0,3.84-0.15,6.91-0.46,9.13
			c-0.27,2.05-0.82,3.64-1.58,4.65c-0.86,1.02-2.09,1.7-3.79,2.05c-1.87,0.39-4.48,0.6-7.75,0.6h-1.4v6.93l3.04-0.05
			c5.11-0.08,9.6-0.15,13.45-0.21c4.26-0.04,9.32-0.08,15.21-0.08c3.89,0,7.8,0.03,11.74,0.08c3.93,0.05,7.87,0.09,11.82,0.09
			c0.03,0,0.05,0,0.08,0c3.9,0.1,7.84,0.15,11.79,0.15h13.08l0.21-1.15c0.72-4.01,1.66-8.05,2.81-12.01
			c1.15-3.98,2.36-7.97,3.62-11.95l0.49-1.55l-6.54-1.1L213.48,446.14z"/>
		<path class="st0" d="M353.84,359.94c-1.51,0.05-2.99,0.08-4.54,0.08c-1.55,0.1-3.07,0.15-4.57,0.15h-4.5
			c-3.67,0-7.35-0.02-11.02-0.08c-3.68-0.05-7.29-0.13-10.86-0.24l-1.45-0.04v6.91l1.37,0.04c3.76,0.11,6.87,0.46,9.23,1.06
			c2.22,0.57,3.99,1.51,5.24,2.75c1.18,1.27,2.02,3.02,2.5,5.18c0.5,2.31,0.76,5.24,0.76,8.7v63.62l-72.88-88.22h-0.66
			c-1.19,0-2.24,0.03-3.16,0.09c-0.86,0.05-1.7,0.08-2.67,0.09c-0.89,0.09-1.77,0.14-2.61,0.14h-8.6c-0.82,0-1.66-0.02-2.52-0.08
			c-0.88-0.05-1.89-0.13-3.03-0.23l-1.54-0.15v7.05h1.4c4.34,0,7.95,1.28,10.73,3.83c2.74,2.49,4.12,6.95,4.12,13.24v63.43
			c0,4.87-0.43,8.65-1.27,11.23c-0.81,2.48-1.86,4.29-3.13,5.37c-1.26,1.07-2.75,1.66-4.57,1.79c-2.01,0.16-4.21,0.24-6.51,0.24
			h-1.4v6.91h1.4c3.48,0,6.99-0.05,10.53-0.15c5.21-0.15,10.28-0.22,15.54-0.09c1.75,0.07,3.67,0.1,5.25,0.09
			c1.82,0.1,3.6,0.15,5.36,0.15h6.68v-6.91h-1.4c-4.18,0-7.47-0.33-9.8-0.98c-2.16-0.6-3.73-1.68-4.84-3.33
			c-1.22-1.69-1.98-4.13-2.26-7.28c-0.31-3.31-0.47-7.75-0.47-13.19v-59.49l75.71,92.6h5.7v-92.6c0-3.63,0.3-6.53,0.89-8.61
			c0.55-1.92,1.35-3.33,2.39-4.2c1.07-0.89,2.36-1.44,3.95-1.66c1.84-0.25,3.93-0.38,6.2-0.38h1.4v-6.91h-1.4
			C356.95,359.86,355.38,359.89,353.84,359.94z"/>
		<path class="st0" d="M473.13,356.58c-0.14,0.69-0.53,1.68-2.35,2.35c-1.68,0.61-3.87,0.93-6.53,0.93H394.2
			c-1.96,0-3.78-0.18-5.58-0.53c-1.39-0.26-2.39-1.24-3.05-2.98l-0.35-0.9h-5.43l-1.93,27.89h6.7l0.26-1.06
			c0.63-2.49,1.22-4.62,1.79-6.38c0.5-1.56,1.26-2.85,2.3-3.9c0.86-0.94,2.19-1.65,3.97-2.11c1.92-0.49,4.65-0.75,8.09-0.75h20.84
			v86.8c0,2.61-0.32,4.62-0.96,5.93c-0.61,1.26-1.39,2.11-2.45,2.63c-1.08,0.64-2.42,1.02-3.99,1.16c-1.71,0.15-3.58,0.23-5.56,0.23
			h-1.4v6.91h1.4c1.91,0,3.71-0.02,5.41-0.08c3.37-0.11,6.43-0.05,9.78-0.16c3.15-0.08,6.92-0.09,10,0c1.5,0.05,3.09,0.14,4.38,0.09
			c1.5,0.1,3.06,0.15,4.67,0.15h6.61v-6.91h-1.4c-2.09,0-4.01-0.08-5.72-0.24c-1.56-0.13-2.91-0.52-4.07-1.2
			c-0.97-0.47-1.71-1.32-2.26-2.54c-0.6-1.34-0.9-3.35-0.9-5.98v-86.8h24.16c2.96,0,5.19,0.31,6.64,0.92
			c1.33,0.56,2.3,1.34,2.92,2.4c0.7,1.04,1.1,2.33,1.18,3.81c0.11,1.74,0.27,3.69,0.48,5.81l0.13,1.26h6.85l1.58-27.89h-5.95
			L473.13,356.58z"/>
		<path class="st0" d="M531.66,360.1c-1.72,0.05-3.42,0.08-5.08,0.08h-19.41c-1.35,0-2.79-0.02-4.29-0.08
			c-1.51-0.05-3.16-0.13-4.93-0.24l-1.49-0.09v6.92l1.33,0.08c1.98,0.11,3.86,0.24,5.63,0.38c1.57,0.15,2.92,0.54,4.07,1.22
			c0.98,0.48,1.75,1.33,2.36,2.59c0.64,1.32,0.97,3.27,0.97,5.77v79.21c0,2.61-0.32,4.62-0.96,5.93c-0.61,1.26-1.39,2.11-2.45,2.63
			c-1.08,0.64-2.42,1.02-3.99,1.16c-1.71,0.15-3.58,0.23-5.56,0.23h-1.4v6.91h1.4c1.91,0,3.69-0.02,5.34-0.08
			c3.26-0.11,6.08-0.05,9.22-0.16c2.97-0.08,6.71-0.09,10.01,0c1.6,0.05,3.2,0.11,4.69,0.09c1.5,0.1,3.11,0.15,4.83,0.15h6.77v-6.91
			h-1.4c-2.09,0-4.01-0.08-5.71-0.24c-1.57-0.13-2.91-0.52-4.07-1.2c-0.97-0.47-1.71-1.32-2.26-2.54c-0.6-1.34-0.9-3.35-0.9-5.98
			v-79.21c0-2.52,0.3-4.47,0.9-5.81c0.55-1.23,1.29-2.07,2.34-2.59c1.07-0.64,2.42-1.02,3.99-1.16c1.77-0.15,3.7-0.29,5.79-0.39
			l1.33-0.07v-6.92l-1.48,0.08C535.24,359.96,533.38,360.04,531.66,360.1z"/>
		<path class="st0" d="M638.53,446.19c-1.22,3.77-2.58,6.92-4.04,9.33c-1.41,2.33-3.16,4.2-5.22,5.58
			c-2.05,1.45-4.59,2.46-7.56,2.99c-3.16,0.56-6.98,0.84-11.35,0.84c-5.57,0-9.99-0.31-13.15-0.93c-3.03-0.58-5.4-1.46-6.95-2.56
			c-1.45-1.16-2.35-2.61-2.75-4.41c-0.45-2-0.67-4.44-0.67-7.27v-73.06c0-2.52,0.3-4.47,0.9-5.81c0.55-1.23,1.29-2.07,2.34-2.59
			c1.07-0.64,2.42-1.02,3.99-1.16c1.77-0.15,3.7-0.29,5.79-0.39l1.33-0.07v-6.92l-1.48,0.08c-1.99,0.11-3.77,0.19-5.34,0.24
			c-1.56,0.05-3.07,0.08-4.53,0.08h-19.41c-1.56,0-3.18-0.02-4.85-0.08c-1.67-0.05-3.39-0.13-5.16-0.24l-1.49-0.09v6.92l1.33,0.08
			c1.98,0.11,3.86,0.24,5.63,0.38c1.57,0.15,2.92,0.54,4.07,1.22c0.98,0.48,1.75,1.33,2.36,2.59c0.64,1.32,0.97,3.27,0.97,5.77v80
			c0,3.98-1.14,6.48-3.48,7.66c-2.6,1.31-5.77,1.8-9.36,1.51l-1.52-0.12v5.63l0.25,1.43l1.43-0.02c6.84-0.1,12.91-0.19,18.2-0.24
			c5.36-0.04,11.57-0.08,18.61-0.08c6.62,0,13.28,0.03,19.95,0.08c6.67,0.05,13.38,0.14,20.11,0.24l1.12,0.01l6.44-26.67l-6.14-1.12
			L638.53,446.19z"/>
		<path class="st0" d="M743.78,446.14c-1.51,4.17-3.13,7.48-4.8,9.86c-1.62,2.3-3.47,4.11-5.51,5.36c-2.04,1.27-4.45,2.16-7.16,2.65
			c-2.81,0.52-6.11,0.82-9.77,0.93h-9.78c-3.85,0-6.82-0.31-8.85-0.9c-1.84-0.54-3.16-1.43-4.01-2.71
			c-0.93-1.47-1.49-3.54-1.68-6.14c-0.21-2.76-0.31-6.39-0.31-10.78v-25.42h15.48c2.94,0,5.51,0.08,7.63,0.24
			c1.93,0.13,3.5,0.6,4.67,1.4c1.1,0.77,1.95,2.04,2.54,3.78c0.63,1.91,0.95,4.71,0.95,8.31v1.4h5.96v-1.4
			c0-1.27-0.03-2.65-0.08-4.16c-0.05-1.48-0.13-3.02-0.24-4.62c-0.1-1.56-0.18-3.09-0.23-4.61c-0.05-1.5-0.08-2.87-0.08-4.13
			c0-2.82,0.05-6.02,0.16-9.57c0.1-3.51,0.26-6.17,0.46-7.93l0.19-1.57h-5.86l-0.25,1.1c-0.22,1-0.41,2.28-0.58,3.87
			c-0.14,1.33-0.58,2.65-1.32,3.95c-0.72,1.25-1.85,2.36-3.38,3.29c-1.49,0.9-3.72,1.36-6.61,1.36h-19.42v-41.99h17.05
			c7.56,0,13.21,1.29,16.78,3.84c3.51,2.5,5.89,7.29,7.09,14.25l0.25,1.49l5.69-1.43v-26.06l-1.44,0.04
			c-7.38,0.21-15.03,0.32-22.76,0.32h-36.29c-3.87,0-8.39-0.11-13.43-0.32l-1.46-0.05v6.87l1.31,0.1c3.16,0.22,5.59,0.45,7.41,0.7
			c1.69,0.23,3.04,0.7,3.9,1.31c0.82,0.75,1.43,1.91,1.78,3.45c0.39,1.72,0.6,4.13,0.6,7.18v70.05c0,3.84-0.15,6.91-0.46,9.13
			c-0.27,2.05-0.82,3.64-1.58,4.65c-0.86,1.02-2.09,1.7-3.79,2.05c-1.87,0.39-4.48,0.6-7.75,0.6h-1.4v6.93l3.04-0.05
			c5.11-0.08,9.6-0.15,13.45-0.21c4.26-0.04,9.32-0.08,15.21-0.08c3.89,0,7.8,0.03,11.74,0.08c3.95,0.05,7.85,0.12,11.9,0.09
			c3.9,0.1,7.84,0.15,11.79,0.15h13.08l0.21-1.15c0.72-4.01,1.66-8.05,2.81-12.01c1.15-3.98,2.36-7.97,3.62-11.95l0.49-1.55
			l-6.54-1.1L743.78,446.14z"/>
		<path class="st0" d="M833.47,429.44c-1.65-3.4-3.76-6.35-6.29-8.77c-2.6-2.49-5.59-4.68-8.88-6.51c-3.31-1.84-6.61-3.55-9.83-5.1
			c-3.38-1.49-6.68-3.03-9.81-4.56c-3.12-1.54-5.94-3.24-8.32-5.01c-2.28-1.9-4.16-4.11-5.59-6.57c-1.39-2.4-2.1-5.35-2.1-8.77
			c0-2.6,0.61-5.06,1.81-7.3c1.22-2.29,2.87-4.3,4.92-5.96c2.07-1.68,4.49-3.04,7.18-4.04c2.67-0.99,5.47-1.49,8.35-1.49
			c5.29,0,9.59,1.45,12.79,4.29c3.22,2.88,5.3,6.93,6.18,12.06l0.2,1.16h6.41l-2.85-22.86l-1.08-0.14
			c-1.56-0.21-3.16-0.44-4.77-0.69c-1.65-0.27-3.26-0.52-4.75-0.7c-1.57-0.32-3.19-0.56-4.96-0.73
			c-11.98-1.17-22.26,1.65-29.97,7.96c-6.73,5.52-10.14,13.63-10.14,24.12c0,4.91,0.78,9.17,2.33,12.65
			c1.52,3.43,3.53,6.46,5.97,9.02c2.48,2.49,5.36,4.68,8.57,6.54c3.05,1.77,6.3,3.49,9.66,5.11c3.15,1.47,6.27,2.96,9.36,4.49
			c2.97,1.46,5.67,3.18,8.02,5.11c2.17,1.77,3.99,3.93,5.43,6.39c1.39,2.4,2.1,5.3,2.1,8.61c0,2.91-0.73,5.47-2.23,7.85
			c-1.53,2.41-3.51,4.55-5.86,6.31c-2.4,1.7-5.13,3.04-8.13,3.99c-6.37,2-12.54,1.88-17.18-0.39c-2.54-1.24-4.83-2.88-6.78-4.84
			c-1.99-2.09-3.69-4.5-5.05-7.16c-1.36-2.67-2.35-5.49-2.95-8.41l-0.23-1.12h-6.38l3.47,25.38l0.67,0.33
			c3.75,1.82,7.81,3.21,12.08,4.13c4.25,0.91,8.51,1.37,12.68,1.37c4.72,0,9.43-0.71,13.99-2.12c4.56-1.41,8.69-3.56,12.29-6.39
			c3.61-2.85,6.58-6.39,8.8-10.53c2.26-4.19,3.41-9.03,3.41-14.4C835.97,437.01,835.13,432.88,833.47,429.44z"/>
	</g>
	<g>
		<polygon class="st1" points="413.05,165.55 431.79,166.77 454.33,144.72 431.3,144.72 411.75,163.53 411.68,163.52 411.65,163.6 
			394.09,172.68 393.66,172.9 384.07,201.06 404.21,192.27 		"/>
		<polygon class="st1" points="338.28,232.07 330.36,212.31 319.56,233.17 329.06,253.92 		"/>
		<polygon class="st1" points="536.33,170.61 544.62,187.08 549.23,172.53 541.49,158.74 		"/>
		<polygon class="st1" points="555.76,182.87 557.17,195.23 569.47,207.49 566.59,192.88 		"/>
		<path class="st1" d="M664.41,300.53c-0.32,0-0.63-0.01-0.93-0.01c-15.27,0-23.18,3.52-30.83,6.93c-0.81,0.36-1.71,0.76-2.66,1.16
			c8.67-24.13,13.06-49.38,13.06-75.12c0-59.32-23.1-115.1-65.05-157.05c-41.95-41.95-97.73-65.05-157.05-65.05
			s-115.1,23.1-157.05,65.05c-41.95,41.95-65.05,97.72-65.05,157.05c0,24.11,3.83,47.8,11.39,70.45c-0.36-0.17-0.72-0.33-1.08-0.5
			c-7.74-3.62-15.75-7.37-31.64-7.52c-1.67,0-3.04,1.36-3.06,3.02c-0.01,1.68,1.34,3.06,3.02,3.08c14.55,0.14,21.62,3.44,29.1,6.95
			c7.74,3.62,15.75,7.37,31.62,7.52c15.8,0.2,23.93-3.44,31.77-6.92c7.39-3.29,14.37-6.4,28.31-6.4l0.91,0
			c14.55,0.14,21.62,3.44,29.1,6.95c7.74,3.62,15.74,7.37,31.62,7.52c15.78,0.21,23.86-3.4,31.69-6.89l0.12-0.05
			c0.14-0.06,0.27-0.12,0.41-0.18l1.16,1.32l-0.68-1.53c7.05-3.13,14-5.99,27.34-5.99l0.95,0c14.55,0.14,21.62,3.45,29.1,6.95
			c7.74,3.62,15.74,7.37,31.62,7.52c0.32,0,0.64,0.01,0.95,0.01c15.26,0,23.19-3.53,30.85-6.94c7.56-3.36,14.67-6.53,29.19-6.38
			c14.55,0.14,21.62,3.45,29.1,6.95c7.74,3.62,15.74,7.37,31.63,7.52l0.94,0c15.26,0,23.17-3.52,30.82-6.93
			c7.39-3.29,14.37-6.4,28.37-6.4l0.88,0c1.66,0,3.03-1.35,3.05-3.02C667.45,301.93,666.09,300.55,664.41,300.53z M475.68,279.73
			v32.71c-10.65-0.86-16.7-3.69-23.09-6.68c-7.74-3.62-15.75-7.37-31.62-7.52c-0.38,0-0.75-0.01-1.11-0.01
			c-5.15,0-9.81,0.43-14.21,1.3l0.45-16.16L475.68,279.73z M389.12,305.2c-4.89,2.18-9.94,4.42-17.14,5.56l2.13-25.72l26-1.36
			l-0.48,17.38c-3.57,1.11-6.62,2.41-9.87,3.85l0,0L389.12,305.2z M359.98,311.55c-14.55-0.14-21.62-3.45-29.1-6.95
			c-1.42-0.67-2.83-1.32-4.29-1.96l15.13-15.91l26.37-1.38l-2.16,26.04C363.84,311.53,361.97,311.57,359.98,311.55L359.98,311.55z
			 M498.58,93.72c-0.09-0.04-0.18-0.07-0.31-0.11c-0.24-0.08-0.47-0.13-0.69-0.15l-0.25-0.03c-0.12,0-0.21,0.02-0.28,0.04
			c-0.21,0.02-0.43,0.07-0.67,0.15c-0.1,0.03-0.2,0.07-0.31,0.12l-0.13,0.04l-186.1,107.26l-52.18,13.38c-1,0.26-1.81,1.03-2.11,2
			l-29.63,92.86c-2.74-0.5-5.26-1.15-7.64-1.97c-8.69-23.74-13.09-48.57-13.09-73.81c0-118.97,96.79-215.76,215.76-215.76
			c118.97,0,215.76,96.79,215.76,215.76c0,26.78-4.95,53.04-14.71,78.06c-1.83,0.53-3.71,0.97-5.71,1.32L579.41,181.4
			c-0.12-0.46-0.36-0.89-0.69-1.25l-79.19-85.76l-0.16-0.14c-0.04-0.03-0.09-0.07-0.13-0.09C499.09,94.02,498.86,93.85,498.58,93.72
			z M260.76,219.79l50.96-13.07c0.27-0.07,0.52-0.17,0.75-0.31l181.88-104.83v28.61L363.38,251.52c-0.12,0.11-0.21,0.22-0.29,0.32
			l-17.17,1.79c-0.7,0.07-1.36,0.39-1.84,0.9l-27.31,28.34c-0.85,0.89-1.07,2.19-0.56,3.32c0.49,1.06,1.55,1.74,2.76,1.74
			c0,0,0,0,0,0l12.36-0.65l-11.7,12.3c-0.12,0.12-0.2,0.24-0.27,0.37c-6.06-1.88-12.49-2.79-20.12-2.86c-0.31,0-0.62-0.01-0.93-0.01
			c-15.28,0-23.19,3.52-30.83,6.93l-0.11,0.05c-7.47,3.33-14.54,6.48-29.12,6.35c-2.1-0.02-4.14-0.12-6.33-0.32L260.76,219.79z
			 M337.48,280.97l-11.14,0.58l21.29-22.09l17.61-1.84c0.13,0.04,0.33,0.09,0.56,0.09c0.44,0,0.89-0.1,1.35-0.29l129.27-13.5v28.74
			l-155.2,8.12C340.04,280.13,338.58,280.2,337.48,280.97z M494.35,139.93v32.37l-22.91,4.51l0.53-16.14L494.35,139.93z
			 M494.35,177.33v24.26l-23.84,3.32l0.76-23.04L494.35,177.33z M434.94,214.84l-1.62,29.66l-26.61,2.78l3.96-29.06L434.94,214.84z
			 M449.99,181.02l16.88-15.64l-0.41,12.4L449.99,181.02z M466.3,182.84l-0.75,22.76l-25.37,3.53l1.09-20.04l1.82-1.69L466.3,182.84
			z M436.08,193.91l-0.87,15.92l-19.2,2.67L436.08,193.91z M465.39,210.6l-1.01,30.66l-26.1,2.73l1.63-29.84L465.39,210.6z
			 M494.35,206.57v31.56l-25.01,2.61l1.01-30.83L494.35,206.57z M405.11,222.61l-3.44,25.2l-26.79,2.8L405.11,222.61z
			 M566.51,249.79l-20.36-3.71l-1.54-25.89l4.18,1.24L566.51,249.79z M544.27,214.17l0.59,0.95l-0.54-0.16L544.27,214.17z
			 M541.16,245.17l-15.49-2.82l-1.25-28.15l15.17,4.5L541.16,245.17z M523.19,186.51l4.93,1.81l10.69,17.12c0,0.03,0,0.07,0,0.11
			l0.47,7.92l-15.09-4.47L523.19,186.51z M522.9,179.97l0.86,1.37l-0.81-0.29L522.9,179.97z M500.32,207.06l19.1,5.66l1.27,28.72
			l-20.37-3.71V207.06z M500.32,201.92v-23.83l17.85,6.57l1.01,22.85L500.32,201.92z M500.32,172.83v-29.01l17.27,27.65l0.34,7.76
			L500.32,172.83z M595.18,282.26c0.95,0,1.85-0.46,2.41-1.22c0.59-0.81,0.74-1.84,0.4-2.78l-8.16-22.7c-0.36-1-1.23-1.74-2.28-1.94
			L576,251.52c-0.03-0.05-0.06-0.11-0.09-0.16L500.35,130.4c-0.01-0.02-0.02-0.03-0.03-0.05v-26.29l73.51,79.61l36.45,129.94
			c-2.07,0.16-3.99,0.24-5.95,0.24l-0.91,0c-3.58-0.03-6.89-0.28-10.09-0.74l-5.51-31.14L595.18,282.26z M510.9,306.32
			c-7.38,3.29-14.35,6.39-28.25,6.39l-0.95,0c-0.01,0-0.02,0-0.04,0v-33.29l17.74-0.93l16.8,0.66v24.89
			c-1.83,0.74-3.58,1.52-5.28,2.27l0.38,0.89l0,0L510.9,306.32z M502.4,244.19l82.4,15.01l6.08,16.91l-88.47-3.49V244.19z
			 M581.97,281.74l5.34,30.17c-5.16-1.34-9.14-3.2-13-5.01l-0.04-0.02l-3.02-25.56L581.97,281.74z M522.17,279.38l43.03,1.7
			l2.71,22.98c-5.97-2.44-13.33-4.57-25.23-4.68c-0.38,0-0.75-0.01-1.11-0.01c-7.28,0-13.49,0.82-19.41,2.58V279.38z"/>
	</g>
</g>
</svg>
