<?xml version="1.0" encoding="utf-8"?>
<!-- Generator: Adobe Illustrator 25.1.0, SVG Export Plug-In . SVG Version: 6.00 Build 0)  -->
<svg version="1.1" id="레이어_1" xmlns="http://www.w3.org/2000/svg" xmlns:xlink="http://www.w3.org/1999/xlink" x="0px"
	 y="0px" viewBox="0 0 1160.07 204.25" style="enable-background:new 0 0 1160.07 204.25;" xml:space="preserve">
<style type="text/css">
	.st0{fill:#273E34;}
</style>
<g>
	<g>
		<path class="st0" d="M157.77,111.38c-3.84,0.07-8.13,0.1-12.87,0.1h-12.38c-1.79,0-3.7-0.03-5.7-0.1
			c-2.01-0.07-4.21-0.18-6.57-0.31l-1.97-0.1v9.29h1.87c2.59,0,5.08,0.1,7.38,0.29c2.12,0.2,3.91,0.71,5.42,1.59
			c1.3,0.66,2.33,1.82,3.13,3.54c0.86,1.84,1.3,4.54,1.3,8.02v30.3c-1.68,1.11-4.42,2.57-8.16,4.32c-4.19,1.97-10.34,2.96-18.3,2.96
			c-9.18,0-17.64-2.01-25.16-5.97c-7.59-4-14.25-9.39-19.79-16.02c-5.44-6.54-9.74-14.15-12.79-22.63
			c-3.06-8.5-4.62-17.29-4.62-26.13c0-8.27,1.48-16.38,4.4-24.11s7.13-14.73,12.55-20.82c5.27-5.95,11.71-10.82,19.15-14.47
			c7.39-3.63,15.73-5.47,24.78-5.47c11.28,0,20.4,2.52,27.11,7.5c6.67,4.96,11.41,13.39,14.1,25.06l0.33,1.44h8.21l-3.97-32.65
			l-1.11-0.38c-4.46-1.53-8.53-2.99-12.22-4.39c-3.84-1.43-7.67-2.65-11.4-3.62c-3.77-1.01-7.65-1.84-11.52-2.45
			c-3.96-0.64-8.37-0.96-13.09-0.96c-11.24,0-21.75,1.98-31.25,5.91c-9.49,3.92-17.79,9.47-24.65,16.47
			c-6.86,7-12.28,15.4-16.13,24.96c-3.85,9.54-5.81,20.01-5.81,31.13c0,7.72,1.33,16.18,3.96,25.18
			c2.63,9.06,7.16,17.64,13.46,25.53c6.29,7.72,14.65,14.27,24.84,19.47c10.22,5.22,23.03,7.86,38.1,7.86
			c4.52,0,8.89-0.32,12.99-0.98c4.03-0.63,8.1-1.53,12.09-2.67c3.73-1.09,7.63-2.42,11.58-3.92c3.83-1.47,7.9-2.98,12.22-4.49
			l1.25-0.44v-5.67l-3.15-3.15v-26.71c0-3.53,0.38-6.26,1.13-8.13c0.68-1.69,1.57-2.83,2.9-3.57c1.14-0.8,2.41-1.27,3.87-1.46
			c1.66-0.19,3.38-0.29,5.13-0.29h1.87V111l-1.94,0.07C165.12,111.2,161.6,111.3,157.77,111.38z"/>
		<path class="st0" d="M304.1,143.13c-2.01,5.54-4.16,9.95-6.38,13.11c-2.15,3.06-4.62,5.47-7.32,7.13
			c-2.71,1.69-5.92,2.87-9.53,3.53c-3.74,0.69-8.13,1.09-13,1.24h-13c-5.12,0-9.07-0.41-11.76-1.2c-2.45-0.71-4.2-1.9-5.33-3.6
			c-1.23-1.95-1.98-4.71-2.24-8.17c-0.28-3.68-0.42-8.5-0.42-14.34v-33.81h20.59c3.92,0,7.33,0.1,10.15,0.32
			c2.57,0.18,4.65,0.8,6.21,1.87c1.46,1.02,2.6,2.71,3.38,5.03c0.84,2.54,1.27,6.26,1.27,11.06v1.87h7.93v-1.87
			c0-1.69-0.04-3.53-0.1-5.53c-0.07-1.97-0.18-4.01-0.32-6.14c-0.14-2.07-0.24-4.11-0.31-6.13c-0.07-2-0.11-3.82-0.11-5.5
			c0-3.75,0.07-8.01,0.21-12.73c0.14-4.67,0.34-8.21,0.61-10.55l0.25-2.09h-7.79l-0.33,1.46c-0.3,1.33-0.55,3.03-0.77,5.15
			c-0.18,1.77-0.77,3.53-1.75,5.25c-0.96,1.66-2.47,3.14-4.49,4.38c-1.98,1.2-4.95,1.81-8.79,1.81h-25.83V38.83h22.68
			c10.06,0,17.57,1.72,22.32,5.11c4.67,3.33,7.83,9.7,9.42,18.95l0.34,1.98l7.56-1.9V28.31l-1.92,0.06
			c-9.81,0.28-19.99,0.42-30.27,0.42h-48.27c-5.15,0-11.16-0.15-17.86-0.42l-1.95-0.07v9.13l1.74,0.13c4.21,0.29,7.43,0.6,9.85,0.93
			c2.25,0.31,4.05,0.93,5.19,1.74c1.09,0.99,1.9,2.54,2.36,4.6c0.53,2.29,0.8,5.5,0.8,9.55v93.17c0,5.11-0.2,9.19-0.61,12.14
			c-0.36,2.73-1.09,4.84-2.1,6.19c-1.14,1.36-2.79,2.26-5.05,2.73c-2.49,0.53-5.96,0.8-10.31,0.8h-1.87v9.22l4.04-0.07
			c6.8-0.1,12.76-0.2,17.89-0.28c5.66-0.06,12.4-0.1,20.23-0.1c5.17,0,10.38,0.04,15.61,0.1c5.22,0.07,10.47,0.12,15.72,0.12
			c0.04,0,0.07,0,0.11,0c5.19,0.13,10.42,0.2,15.68,0.2h17.4l0.28-1.53c0.96-5.34,2.21-10.71,3.73-15.97
			c1.53-5.3,3.14-10.61,4.81-15.9l0.65-2.06l-8.69-1.46L304.1,143.13z"/>
		<path class="st0" d="M490.78,28.49c-2.01,0.07-3.98,0.1-6.03,0.1c-2.06,0.13-4.08,0.2-6.08,0.2h-5.98c-4.89,0-9.77-0.03-14.66-0.1
			c-4.89-0.07-9.7-0.18-14.45-0.32l-1.93-0.06v9.19l1.82,0.06c5,0.15,9.13,0.61,12.28,1.41c2.95,0.76,5.3,2.01,6.97,3.66
			c1.58,1.69,2.69,4.01,3.32,6.89c0.67,3.08,1.01,6.97,1.01,11.57v84.62L370.11,28.37h-0.88c-1.58,0-2.98,0.04-4.21,0.12
			c-1.15,0.07-2.26,0.1-3.54,0.12c-1.19,0.12-2.35,0.19-3.47,0.19h-11.44c-1.09,0-2.2-0.03-3.35-0.1c-1.17-0.07-2.52-0.18-4.03-0.31
			l-2.04-0.2v9.38h1.87c5.78,0,10.58,1.71,14.27,5.09c3.64,3.31,5.48,9.25,5.48,17.61v84.36c0,6.48-0.57,11.51-1.69,14.94
			c-1.07,3.3-2.47,5.7-4.16,7.15c-1.68,1.43-3.66,2.2-6.08,2.38c-2.68,0.22-5.59,0.32-8.66,0.32h-1.87v9.19h1.87
			c4.63,0,9.3-0.07,14.01-0.2c6.93-0.2,13.67-0.29,20.66-0.12c2.33,0.09,4.88,0.13,6.99,0.12c2.41,0.13,4.78,0.2,7.13,0.2h8.89
			v-9.19h-1.87c-5.56,0-9.94-0.44-13.03-1.3c-2.87-0.8-4.97-2.23-6.43-4.43c-1.62-2.25-2.63-5.5-3.01-9.69
			c-0.41-4.41-0.62-10.31-0.62-17.55V57.31l100.7,123.16h7.58V57.31c0-4.83,0.4-8.68,1.19-11.45c0.73-2.55,1.8-4.43,3.18-5.59
			c1.42-1.18,3.14-1.91,5.25-2.2c2.45-0.34,5.23-0.51,8.24-0.51h1.87v-9.19h-1.87C494.92,28.37,492.83,28.42,490.78,28.49z"/>
		<path class="st0" d="M649.45,24.01c-0.18,0.92-0.7,2.23-3.12,3.12c-2.23,0.82-5.15,1.24-8.69,1.24h-93.18
			c-2.6,0-5.03-0.23-7.42-0.7c-1.85-0.35-3.18-1.65-4.06-3.97l-0.46-1.2h-7.22l-2.57,37.1h8.91l0.35-1.41
			c0.83-3.31,1.63-6.14,2.39-8.49c0.66-2.07,1.68-3.79,3.06-5.19c1.15-1.25,2.92-2.19,5.28-2.8c2.56-0.66,6.19-0.99,10.76-0.99
			h27.72v115.44c0,3.47-0.43,6.14-1.28,7.89c-0.82,1.68-1.85,2.8-3.25,3.5c-1.44,0.85-3.22,1.36-5.31,1.55
			c-2.27,0.2-4.76,0.31-7.39,0.31h-1.87v9.19h1.87c2.54,0,4.94-0.03,7.19-0.1c4.49-0.15,8.55-0.07,13-0.22c4.19-0.1,9.2-0.12,13.3,0
			c2,0.07,4.11,0.19,5.83,0.12c1.99,0.13,4.07,0.2,6.21,0.2h8.8v-9.19h-1.87c-2.79,0-5.34-0.1-7.61-0.32
			c-2.08-0.18-3.87-0.69-5.41-1.59c-1.29-0.63-2.28-1.75-3.01-3.38c-0.79-1.78-1.2-4.45-1.2-7.95V40.71h32.13
			c3.93,0,6.9,0.41,8.83,1.23c1.77,0.74,3.06,1.78,3.89,3.19c0.93,1.39,1.46,3.09,1.58,5.06c0.15,2.32,0.36,4.9,0.64,7.73l0.18,1.68
			h9.11l2.1-37.1h-7.91L649.45,24.01z"/>
		<path class="st0" d="M727.29,28.69c-2.29,0.07-4.55,0.1-6.76,0.1h-25.81c-1.8,0-3.71-0.03-5.71-0.1c-2.01-0.07-4.2-0.18-6.56-0.32
			l-1.98-0.12v9.2l1.77,0.1c2.63,0.15,5.13,0.32,7.49,0.51c2.09,0.2,3.88,0.71,5.42,1.62c1.3,0.64,2.33,1.77,3.14,3.44
			c0.85,1.75,1.28,4.35,1.28,7.67v105.35c0,3.47-0.43,6.14-1.28,7.89c-0.82,1.68-1.85,2.8-3.25,3.5c-1.44,0.85-3.22,1.36-5.31,1.55
			c-2.27,0.2-4.76,0.31-7.39,0.31h-1.87v9.19h1.87c2.54,0,4.9-0.03,7.1-0.1c4.33-0.15,8.09-0.07,12.26-0.22
			c3.95-0.1,8.92-0.12,13.31,0c2.12,0.07,4.25,0.15,6.24,0.12c1.99,0.13,4.14,0.2,6.42,0.2h9v-9.19h-1.87c-2.79,0-5.34-0.1-7.6-0.32
			c-2.09-0.18-3.87-0.69-5.42-1.59c-1.29-0.63-2.28-1.75-3.01-3.38c-0.8-1.78-1.2-4.45-1.2-7.95V50.81c0-3.36,0.4-5.95,1.2-7.73
			c0.73-1.63,1.71-2.76,3.11-3.44c1.43-0.85,3.22-1.36,5.31-1.55c2.35-0.2,4.92-0.38,7.69-0.53l1.77-0.09v-9.2l-1.97,0.1
			C732.05,28.52,729.58,28.62,727.29,28.69z"/>
		<path class="st0" d="M869.43,143.21c-1.63,5.02-3.44,9.2-5.38,12.41c-1.88,3.09-4.2,5.59-6.94,7.42
			c-2.72,1.93-6.1,3.27-10.05,3.98c-4.2,0.74-9.28,1.12-15.1,1.12c-7.4,0-13.29-0.41-17.49-1.24c-4.03-0.77-7.18-1.94-9.25-3.4
			c-1.93-1.55-3.12-3.47-3.65-5.86c-0.6-2.65-0.9-5.91-0.9-9.67V50.81c0-3.36,0.4-5.95,1.2-7.73c0.73-1.63,1.71-2.76,3.11-3.44
			c1.43-0.85,3.22-1.36,5.3-1.55c2.36-0.2,4.92-0.38,7.7-0.53l1.77-0.09v-9.2l-1.97,0.1c-2.65,0.15-5.01,0.25-7.1,0.32
			c-2.08,0.07-4.08,0.1-6.02,0.1h-25.81c-2.07,0-4.23-0.03-6.45-0.1s-4.51-0.18-6.86-0.32l-1.98-0.12v9.2l1.77,0.1
			c2.63,0.15,5.13,0.32,7.49,0.51c2.09,0.2,3.88,0.71,5.42,1.62c1.3,0.64,2.33,1.77,3.14,3.44c0.85,1.75,1.28,4.35,1.28,7.67v106.4
			c0,5.3-1.52,8.62-4.63,10.18c-3.46,1.74-7.68,2.39-12.44,2.01l-2.02-0.16v7.48l0.33,1.9l1.9-0.03c9.1-0.13,17.17-0.25,24.21-0.32
			c7.13-0.06,15.38-0.1,24.75-0.1c8.81,0,17.66,0.04,26.53,0.1c8.88,0.07,17.8,0.19,26.75,0.32l1.5,0.01l8.57-35.48l-8.16-1.49
			L869.43,143.21z"/>
		<path class="st0" d="M1009.42,143.13c-2.01,5.54-4.16,9.95-6.38,13.11c-2.15,3.06-4.62,5.47-7.32,7.13
			c-2.71,1.69-5.92,2.87-9.53,3.53c-3.74,0.69-8.13,1.09-13,1.24h-13c-5.12,0-9.07-0.41-11.76-1.2c-2.45-0.71-4.2-1.9-5.33-3.6
			c-1.23-1.95-1.98-4.71-2.24-8.17c-0.28-3.68-0.42-8.5-0.42-14.34v-33.81h20.59c3.92,0,7.33,0.1,10.15,0.32
			c2.57,0.18,4.65,0.8,6.21,1.87c1.46,1.02,2.6,2.71,3.38,5.03c0.84,2.54,1.27,6.26,1.27,11.06v1.87h7.93v-1.87
			c0-1.69-0.04-3.53-0.1-5.53c-0.07-1.97-0.18-4.01-0.32-6.14c-0.14-2.07-0.24-4.11-0.31-6.13c-0.07-2-0.11-3.82-0.11-5.5
			c0-3.75,0.07-8.01,0.21-12.73c0.14-4.67,0.34-8.21,0.61-10.55l0.25-2.09h-7.79l-0.33,1.46c-0.3,1.33-0.55,3.03-0.77,5.15
			c-0.18,1.77-0.77,3.53-1.75,5.25c-0.96,1.66-2.47,3.14-4.49,4.38c-1.98,1.2-4.95,1.81-8.79,1.81h-25.83V38.83h22.68
			c10.06,0,17.57,1.72,22.32,5.11c4.67,3.33,7.83,9.7,9.42,18.95l0.34,1.98l7.56-1.9V28.31l-1.92,0.06
			c-9.81,0.28-19.99,0.42-30.27,0.42h-48.27c-5.15,0-11.16-0.15-17.86-0.42l-1.95-0.07v9.13l1.74,0.13c4.21,0.29,7.43,0.6,9.85,0.93
			c2.25,0.31,4.05,0.93,5.19,1.74c1.09,0.99,1.9,2.54,2.36,4.6c0.53,2.29,0.79,5.5,0.79,9.55v93.17c0,5.11-0.2,9.19-0.61,12.14
			c-0.36,2.73-1.09,4.84-2.1,6.19c-1.14,1.36-2.79,2.26-5.05,2.73c-2.49,0.53-5.96,0.8-10.31,0.8h-1.87v9.22l4.04-0.07
			c6.8-0.1,12.76-0.2,17.89-0.28c5.66-0.06,12.4-0.1,20.23-0.1c5.17,0,10.38,0.04,15.61,0.1c5.26,0.07,10.44,0.16,15.83,0.12
			c5.19,0.13,10.42,0.2,15.68,0.2h17.4l0.28-1.53c0.96-5.34,2.21-10.71,3.73-15.97c1.53-5.3,3.14-10.61,4.81-15.9l0.65-2.06
			l-8.69-1.46L1009.42,143.13z"/>
		<path class="st0" d="M1128.71,120.93c-2.19-4.52-5-8.45-8.37-11.67c-3.46-3.31-7.44-6.23-11.82-8.66
			c-4.41-2.45-8.79-4.73-13.07-6.78c-4.5-1.98-8.89-4.03-13.04-6.07c-4.15-2.04-7.9-4.3-11.07-6.67c-3.03-2.52-5.54-5.47-7.44-8.74
			c-1.85-3.19-2.79-7.12-2.79-11.67c0-3.46,0.81-6.72,2.41-9.72c1.62-3.05,3.82-5.72,6.55-7.92c2.76-2.23,5.97-4.04,9.55-5.37
			c3.54-1.31,7.28-1.98,11.1-1.98c7.04,0,12.76,1.93,17.01,5.7c4.28,3.84,7.05,9.22,8.22,16.05l0.26,1.55h8.52l-3.79-30.4
			l-1.44-0.19c-2.08-0.28-4.2-0.58-6.35-0.92c-2.19-0.36-4.34-0.69-6.32-0.93c-2.09-0.42-4.24-0.74-6.6-0.98
			c-15.93-1.56-29.61,2.19-39.87,10.59c-8.95,7.34-13.49,18.13-13.49,32.08c0,6.54,1.04,12.2,3.1,16.82
			c2.03,4.57,4.69,8.59,7.94,11.99c3.3,3.31,7.13,6.23,11.4,8.69c4.06,2.35,8.37,4.64,12.84,6.8c4.19,1.95,8.34,3.94,12.45,5.97
			c3.95,1.94,7.54,4.23,10.66,6.8c2.88,2.35,5.31,5.22,7.22,8.5c1.85,3.19,2.79,7.05,2.79,11.45c0,3.87-0.97,7.28-2.96,10.44
			c-2.03,3.21-4.67,6.05-7.79,8.39c-3.19,2.26-6.83,4.04-10.82,5.31c-8.48,2.65-16.68,2.49-22.85-0.53
			c-3.38-1.65-6.42-3.84-9.02-6.43c-2.65-2.79-4.91-5.98-6.72-9.53s-3.13-7.31-3.92-11.19l-0.31-1.49h-8.49l4.62,33.76l0.9,0.44
			c4.99,2.42,10.39,4.27,16.06,5.5c5.65,1.21,11.32,1.82,16.86,1.82c6.28,0,12.54-0.95,18.61-2.82c6.07-1.88,11.56-4.74,16.35-8.5
			c4.81-3.79,8.75-8.5,11.71-14c3.01-5.57,4.53-12.01,4.53-19.15C1132.04,131,1130.92,125.5,1128.71,120.93z"/>
	</g>
</g>
</svg>
